<mxfile host="app.diagrams.net" modified="2024-03-21T05:39:34.940Z" agent="Mozilla/5.0 (Windows NT 10.0; Win64; x64) AppleWebKit/537.36 (KHTML, like Gecko) Chrome/121.0.0.0 Safari/537.36 Edg/121.0.0.0" etag="2coRV9MC9WUqm7j-b74w" version="22.1.18" type="github">
  <diagram name="Page-1" id="9XS_dNhHw_HiubMc6i0S">
    <mxGraphModel dx="2213" dy="1928" grid="1" gridSize="10" guides="1" tooltips="1" connect="1" arrows="1" fold="1" page="1" pageScale="1" pageWidth="827" pageHeight="1169" math="0" shadow="0">
      <root>
        <mxCell id="0" />
        <mxCell id="1" parent="0" />
        <mxCell id="O5uxfEIYY3hnYc4wjItz-1" value="configure" style="swimlane;fontStyle=1;align=center;verticalAlign=top;childLayout=stackLayout;horizontal=1;startSize=26;horizontalStack=0;resizeParent=1;resizeParentMax=0;resizeLast=0;collapsible=1;marginBottom=0;whiteSpace=wrap;html=1;" vertex="1" parent="1">
          <mxGeometry x="-50" y="180" width="230" height="98" as="geometry" />
        </mxCell>
        <mxCell id="O5uxfEIYY3hnYc4wjItz-2" value="+ get_mq_conf（） : bool&lt;br&gt;获取 mq消费者对应的配置&lt;br&gt;+ writeToFile() : void&lt;br&gt;将 mq消息写入文件" style="text;strokeColor=none;fillColor=none;align=left;verticalAlign=top;spacingLeft=4;spacingRight=4;overflow=hidden;rotatable=0;points=[[0,0.5],[1,0.5]];portConstraint=eastwest;whiteSpace=wrap;html=1;" vertex="1" parent="O5uxfEIYY3hnYc4wjItz-1">
          <mxGeometry y="26" width="230" height="64" as="geometry" />
        </mxCell>
        <mxCell id="O5uxfEIYY3hnYc4wjItz-3" value="" style="line;strokeWidth=1;fillColor=none;align=left;verticalAlign=middle;spacingTop=-1;spacingLeft=3;spacingRight=3;rotatable=0;labelPosition=right;points=[];portConstraint=eastwest;strokeColor=inherit;" vertex="1" parent="O5uxfEIYY3hnYc4wjItz-1">
          <mxGeometry y="90" width="230" height="8" as="geometry" />
        </mxCell>
        <mxCell id="O5uxfEIYY3hnYc4wjItz-5" value="RequestEventThread" style="swimlane;fontStyle=1;align=center;verticalAlign=top;childLayout=stackLayout;horizontal=1;startSize=26;horizontalStack=0;resizeParent=1;resizeParentMax=0;resizeLast=0;collapsible=1;marginBottom=0;whiteSpace=wrap;html=1;" vertex="1" parent="1">
          <mxGeometry x="660" y="140" width="300" height="160" as="geometry" />
        </mxCell>
        <mxCell id="O5uxfEIYY3hnYc4wjItz-7" value="" style="line;strokeWidth=1;fillColor=none;align=left;verticalAlign=middle;spacingTop=-1;spacingLeft=3;spacingRight=3;rotatable=0;labelPosition=right;points=[];portConstraint=eastwest;strokeColor=inherit;" vertex="1" parent="O5uxfEIYY3hnYc4wjItz-5">
          <mxGeometry y="26" width="300" height="8" as="geometry" />
        </mxCell>
        <mxCell id="O5uxfEIYY3hnYc4wjItz-8" value="+ run_() : void&lt;br&gt;事件线程一直在处理队列内的数据&lt;br&gt;+ parse_json() : bool&lt;br&gt;解析消费者队列里的数据，并将其加入到文件" style="text;strokeColor=none;fillColor=none;align=left;verticalAlign=top;spacingLeft=4;spacingRight=4;overflow=hidden;rotatable=0;points=[[0,0.5],[1,0.5]];portConstraint=eastwest;whiteSpace=wrap;html=1;" vertex="1" parent="O5uxfEIYY3hnYc4wjItz-5">
          <mxGeometry y="34" width="300" height="126" as="geometry" />
        </mxCell>
        <mxCell id="O5uxfEIYY3hnYc4wjItz-9" value="TokenMessage" style="swimlane;fontStyle=1;align=center;verticalAlign=top;childLayout=stackLayout;horizontal=1;startSize=26;horizontalStack=0;resizeParent=1;resizeParentMax=0;resizeLast=0;collapsible=1;marginBottom=0;whiteSpace=wrap;html=1;" vertex="1" parent="1">
          <mxGeometry x="150" y="480" width="230" height="130" as="geometry" />
        </mxCell>
        <mxCell id="O5uxfEIYY3hnYc4wjItz-11" value="" style="line;strokeWidth=1;fillColor=none;align=left;verticalAlign=middle;spacingTop=-1;spacingLeft=3;spacingRight=3;rotatable=0;labelPosition=right;points=[];portConstraint=eastwest;strokeColor=inherit;" vertex="1" parent="O5uxfEIYY3hnYc4wjItz-9">
          <mxGeometry y="26" width="230" height="8" as="geometry" />
        </mxCell>
        <mxCell id="O5uxfEIYY3hnYc4wjItz-12" value="+ handle_faq_token() : bool&lt;br&gt;调用api 和 token消息写入文件&lt;br&gt;+ call_remote() : bool&lt;br&gt;调用 api 获取token消息&lt;br&gt;+ handle_request_json() : bool&lt;br&gt;将token消息处理并写入到文件" style="text;strokeColor=none;fillColor=none;align=left;verticalAlign=top;spacingLeft=4;spacingRight=4;overflow=hidden;rotatable=0;points=[[0,0.5],[1,0.5]];portConstraint=eastwest;whiteSpace=wrap;html=1;" vertex="1" parent="O5uxfEIYY3hnYc4wjItz-9">
          <mxGeometry y="34" width="230" height="96" as="geometry" />
        </mxCell>
        <mxCell id="O5uxfEIYY3hnYc4wjItz-13" value="RequestMqThread" style="swimlane;fontStyle=1;align=center;verticalAlign=top;childLayout=stackLayout;horizontal=1;startSize=26;horizontalStack=0;resizeParent=1;resizeParentMax=0;resizeLast=0;collapsible=1;marginBottom=0;whiteSpace=wrap;html=1;" vertex="1" parent="1">
          <mxGeometry x="270" y="140" width="250" height="240" as="geometry" />
        </mxCell>
        <mxCell id="O5uxfEIYY3hnYc4wjItz-14" value="- consumer: MessageConsumer&lt;br&gt;- useTopic : bool&lt;br&gt;- brokerURI: string&lt;br&gt;- destURI : string&lt;br&gt;- running_ : bool&lt;br&gt;区分线程是否运行" style="text;strokeColor=none;fillColor=none;align=left;verticalAlign=top;spacingLeft=4;spacingRight=4;overflow=hidden;rotatable=0;points=[[0,0.5],[1,0.5]];portConstraint=eastwest;whiteSpace=wrap;html=1;" vertex="1" parent="O5uxfEIYY3hnYc4wjItz-13">
          <mxGeometry y="26" width="250" height="104" as="geometry" />
        </mxCell>
        <mxCell id="O5uxfEIYY3hnYc4wjItz-15" value="" style="line;strokeWidth=1;fillColor=none;align=left;verticalAlign=middle;spacingTop=-1;spacingLeft=3;spacingRight=3;rotatable=0;labelPosition=right;points=[];portConstraint=eastwest;strokeColor=inherit;" vertex="1" parent="O5uxfEIYY3hnYc4wjItz-13">
          <mxGeometry y="130" width="250" height="8" as="geometry" />
        </mxCell>
        <mxCell id="O5uxfEIYY3hnYc4wjItz-16" value="+ init() : void&lt;br&gt;初始化获取mq配置&lt;br&gt;+ start() : void&lt;br&gt;开启线程运行&lt;br&gt;+ run() : void&lt;br&gt;运行线程将mq消息加入到队列" style="text;strokeColor=none;fillColor=none;align=left;verticalAlign=top;spacingLeft=4;spacingRight=4;overflow=hidden;rotatable=0;points=[[0,0.5],[1,0.5]];portConstraint=eastwest;whiteSpace=wrap;html=1;" vertex="1" parent="O5uxfEIYY3hnYc4wjItz-13">
          <mxGeometry y="138" width="250" height="102" as="geometry" />
        </mxCell>
        <mxCell id="O5uxfEIYY3hnYc4wjItz-17" value="CSrvMainThread" style="swimlane;fontStyle=1;align=center;verticalAlign=top;childLayout=stackLayout;horizontal=1;startSize=26;horizontalStack=0;resizeParent=1;resizeParentMax=0;resizeLast=0;collapsible=1;marginBottom=0;whiteSpace=wrap;html=1;" vertex="1" parent="1">
          <mxGeometry x="350" y="-80" width="220" height="170" as="geometry" />
        </mxCell>
        <mxCell id="O5uxfEIYY3hnYc4wjItz-18" value="-&amp;nbsp; _request : RequestEventThread*&lt;br&gt;- _mq_request : RequestMqThread*&lt;br&gt;- _requestEventThd : thread&lt;br&gt;- _listenEventThd : thread" style="text;strokeColor=none;fillColor=none;align=left;verticalAlign=top;spacingLeft=4;spacingRight=4;overflow=hidden;rotatable=0;points=[[0,0.5],[1,0.5]];portConstraint=eastwest;whiteSpace=wrap;html=1;" vertex="1" parent="O5uxfEIYY3hnYc4wjItz-17">
          <mxGeometry y="26" width="220" height="84" as="geometry" />
        </mxCell>
        <mxCell id="O5uxfEIYY3hnYc4wjItz-19" value="" style="line;strokeWidth=1;fillColor=none;align=left;verticalAlign=middle;spacingTop=-1;spacingLeft=3;spacingRight=3;rotatable=0;labelPosition=right;points=[];portConstraint=eastwest;strokeColor=inherit;" vertex="1" parent="O5uxfEIYY3hnYc4wjItz-17">
          <mxGeometry y="110" width="220" height="8" as="geometry" />
        </mxCell>
        <mxCell id="O5uxfEIYY3hnYc4wjItz-20" value="+ CSrvMainThread()&lt;br&gt;运行mq消费者线程 和 处理事件线程&lt;br&gt;" style="text;strokeColor=none;fillColor=none;align=left;verticalAlign=top;spacingLeft=4;spacingRight=4;overflow=hidden;rotatable=0;points=[[0,0.5],[1,0.5]];portConstraint=eastwest;whiteSpace=wrap;html=1;" vertex="1" parent="O5uxfEIYY3hnYc4wjItz-17">
          <mxGeometry y="118" width="220" height="52" as="geometry" />
        </mxCell>
      </root>
    </mxGraphModel>
  </diagram>
</mxfile>
